# xmcd
#
# Track frame offsets:
#   150
#   18800
#   39733
#   53190
#   67262
#   71948
#   90454
#   96117
#   112510
#   131333
#   147571
#   164533
#   172300
#   189026
#   205750
#   218636
#   236719
#   258506
#   280832
#
# Disc length: 3865 seconds
#
# Revision: 0
# Processed by: cddbd v1.5.2PL0 Copyright (c) Steve Scherf et al.
# Submitted via: GXTranscoder 2.0.1939
#
DISCID=170f1713
DTITLE=De Phazz - De Phazz
DYEAR=2007
DGENRE=Blues
TTITLE0=De Phazz1
TTITLE1=De Phazz 2
TTITLE2=De Phazz 3
TTITLE3=De Phazz 4
TTITLE4=De Phazz 5
TTITLE5=De Phazz 6
TTITLE6=De Phazz 7
TTITLE7=De Phazz 8
TTITLE8=De Phazz 9
TTITLE9=De Phazz 10
TTITLE10=De Phazz 11
TTITLE11=De Phazz 12
TTITLE12=De Phazz 13
TTITLE13=De Phazz 14
TTITLE14=De Phazz 15
TTITLE15=De Phazz 16
TTITLE16=De Phazz 17
TTITLE17=De Phazz 18
TTITLE18=De Phazz 19
EXTD=
EXTT0=
EXTT1=
EXTT2=
EXTT3=
EXTT4=
EXTT5=
EXTT6=
EXTT7=
EXTT8=
EXTT9=
EXTT10=
EXTT11=
EXTT12=
EXTT13=
EXTT14=
EXTT15=
EXTT16=
EXTT17=
EXTT18=
PLAYORDER=
